<?xml version="1.0" encoding="UTF-8"?>
<svg xmlns="http://www.w3.org/2000/svg" version="1.1" viewBox="0 0 120 120">
  <!-- Generator: Adobe Illustrator 28.7.2, SVG Export Plug-In . SVG Version: 1.2.0 Build 154)  -->
  <g>
    <g id="Graphic_Element">
      <path d="M94.7,14.3H25.3c-6,0-10.9,4.9-10.9,10.9v69.5c0,6,4.9,10.9,10.9,10.9h69.4c6,0,10.9-4.9,10.9-10.9V25.3c0-6-4.9-10.9-10.9-10.9ZM31,88.8c2.1-12.3,10.6-22,21.6-25.1-5.7-2.8-9.7-8.6-9.7-15.4s7.6-17.1,17.1-17.1,17.1,7.6,17.1,17.1-4,12.6-9.7,15.4c11,3.1,19.5,12.9,21.6,25.1H31Z"/>
    </g>
  </g>
</svg>